# 3ds Max Wavefront OBJ Exporter v0.97b - (c)2007 guruware
# File Created: 17.04.2020 18:13:19

mtllib Hexagon_With_Volume.mtl

#
# object Cylinder001
#

v  0.2500 0.0000 0.4330
v  -0.2500 0.0000 0.4330
v  -0.5000 0.0000 0.0000
v  -0.2500 0.0000 -0.4330
v  0.2500 0.0000 -0.4330
v  0.5000 0.0000 -0.0000
v  0.2500 1.0000 -0.4330
v  0.5000 1.0000 -0.0000
v  -0.2500 1.0000 -0.4330
v  -0.5000 1.0000 0.0000
v  -0.2500 1.0000 0.4330
v  0.2500 1.0000 0.4330
# 12 vertices

vn 0.3962 -0.6100 0.6862
vn -0.3962 -0.6100 0.6862
vn -0.7924 -0.6100 0.0000
vn -0.3962 -0.6100 -0.6862
vn 0.3962 -0.6100 -0.6862
vn 0.7924 -0.6100 0.0000
vn 0.5000 0.0000 -0.8660
vn 1.0000 0.0000 0.0000
vn -0.5000 0.0000 -0.8660
vn -1.0000 0.0000 0.0000
vn -0.5000 0.0000 0.8660
vn 0.5000 0.0000 0.8660
# 12 vertex normals

vt 0.3333 0.0000 -0.0000
vt 0.0833 0.0000 -1.0000
vt 0.2500 0.0000 -1.0000
vt 0.6667 0.0000 0.0000
vt 0.9167 0.0000 1.0000
vt 0.7500 0.0000 1.0000
vt 0.9167 1.0000 1.0000
vt 0.7500 1.0000 1.0000
vt -0.0833 0.0000 1.0000
vt 0.0833 0.0000 1.0000
vt 0.0833 1.0000 1.0000
vt -0.0833 1.0000 1.0000
vt 0.2500 0.0000 1.0000
vt 0.2500 1.0000 1.0000
vt 0.4167 0.0000 1.0000
vt 0.4167 1.0000 1.0000
vt 0.5833 0.0000 1.0000
vt 0.5833 1.0000 1.0000
# 18 texture coords

o Cylinder001
g Cylinder001
usemtl wire_228214153
s 1
f 1/1/1 2/2/2 3/3/3 4/4/4 5/5/5 6/6/6 
s 8
f 6/6/6 5/5/5 7/7/7 8/8/8 
f 5/9/5 4/10/4 9/11/9 7/12/7 
f 4/10/4 3/13/3 10/14/10 9/11/9 
f 3/13/3 2/15/2 11/16/11 10/14/10 
f 2/15/2 1/17/1 12/18/12 11/16/11 
f 1/17/1 6/6/6 8/8/8 12/18/12 
# 7 polygons

